<svg version="1.1" viewBox="0.0 0.0 960.0 960.0" fill="none" stroke="none" stroke-linecap="square" stroke-miterlimit="10" xmlns:xlink="http://www.w3.org/1999/xlink" xmlns="http://www.w3.org/2000/svg"><clipPath id="p.0"><path d="m0 0l960.0 0l0 960.0l-960.0 0l0 -960.0z" clip-rule="nonzero"/></clipPath><g clip-path="url(#p.0)"><path fill="#000000" fill-opacity="0.0" d="m0 0l960.0 0l0 960.0l-960.0 0z" fill-rule="evenodd"/><path fill="#000000" d="m523.8975 114.23771l-82.23624 42.897636l379.11813 730.3937l82.236206 -42.897644z" fill-rule="evenodd"/><path stroke="#000000" stroke-width="4.742782152230971" stroke-linejoin="round" stroke-linecap="butt" d="m523.8975 114.23771l-82.23624 42.897636l379.11813 730.3937l82.236206 -42.897644z" fill-rule="evenodd"/><path fill="#000000" d="m392.87277 131.92126l0 0c0 -47.192085 38.249695 -85.44882 85.433075 -85.44882l0 0c22.658264 0 44.38849 9.002617 60.41028 25.027382c16.02185 16.024757 25.022766 37.759003 25.022766 60.42144l0 0c0 47.192078 -38.249634 85.44881 -85.433044 85.44881l0 0c-47.18338 0 -85.433075 -38.25673 -85.433075 -85.44881z" fill-rule="evenodd"/><path stroke="#000000" stroke-width="37.95275590551181" stroke-linejoin="round" stroke-linecap="butt" d="m392.87277 131.92126l0 0c0 -47.192085 38.249695 -85.44882 85.433075 -85.44882l0 0c22.658264 0 44.38849 9.002617 60.41028 25.027382c16.02185 16.024757 25.022766 37.759003 25.022766 60.42144l0 0c0 47.192078 -38.249634 85.44881 -85.433044 85.44881l0 0c-47.18338 0 -85.433075 -38.25673 -85.433075 -85.44881z" fill-rule="evenodd"/><path fill="#000000" d="m452.19843 124.73087l50.015747 26.110237l-379.1181 730.3937l-50.015747 -26.11023z" fill-rule="evenodd"/><path stroke="#000000" stroke-width="4.742782152230971" stroke-linejoin="round" stroke-linecap="butt" d="m452.19843 124.73087l50.015747 26.110237l-379.1181 730.3937l-50.015747 -26.11023z" fill-rule="evenodd"/><path fill="#000000" d="m756.5856 828.0798l0 0c0 -47.192078 38.249695 -85.44879 85.433044 -85.44879l0 0c22.658264 0 44.38849 9.0026245 60.41034 25.027405c16.02179 16.02472 25.022766 37.758972 25.022766 60.421387l0 0c0 47.192078 -38.249695 85.44885 -85.433105 85.44885l0 0c-47.18335 0 -85.433044 -38.256775 -85.433044 -85.44885z" fill-rule="evenodd"/><path stroke="#000000" stroke-width="37.95275590551181" stroke-linejoin="round" stroke-linecap="butt" d="m756.5856 828.0798l0 0c0 -47.192078 38.249695 -85.44879 85.433044 -85.44879l0 0c22.658264 0 44.38849 9.0026245 60.41034 25.027405c16.02179 16.02472 25.022766 37.758972 25.022766 60.421387l0 0c0 47.192078 -38.249695 85.44885 -85.433105 85.44885l0 0c-47.18335 0 -85.433044 -38.256775 -85.433044 -85.44885z" fill-rule="evenodd"/><path fill="#000000" d="m32.548546 828.0798l0 0c0 -47.192078 38.249687 -85.44879 85.433075 -85.44879l0 0c22.658257 0 44.388496 9.0026245 60.4103 25.027405c16.021805 16.02472 25.022766 37.758972 25.022766 60.421387l0 0c0 47.192078 -38.249695 85.44885 -85.43307 85.44885l0 0c-47.183388 0 -85.433075 -38.256775 -85.433075 -85.44885z" fill-rule="evenodd"/><path stroke="#000000" stroke-width="37.95275590551181" stroke-linejoin="round" stroke-linecap="butt" d="m32.548546 828.0798l0 0c0 -47.192078 38.249687 -85.44879 85.433075 -85.44879l0 0c22.658257 0 44.388496 9.0026245 60.4103 25.027405c16.021805 16.02472 25.022766 37.758972 25.022766 60.421387l0 0c0 47.192078 -38.249695 85.44885 -85.43307 85.44885l0 0c-47.183388 0 -85.433075 -38.256775 -85.433075 -85.44885z" fill-rule="evenodd"/></g></svg>